<svg xmlns="http://www.w3.org/2000/svg" width="100" height="100" viewBox="0 0 100 100">
<path d="M48.06,11.152a1.667,1.667,0,1,1-1.675,1.666A1.67,1.67,0,0,1,48.06,11.152ZM99.916,37.6c-0.016-.138-0.014-0.283-0.041-0.418-0.032-.158-0.093-0.307-0.14-0.461a3.387,3.387,0,0,0-.541-1.216c-0.028-.045-0.044-0.094-0.073-0.137a5.134,5.134,0,0,0-.643-0.779L64.7,0.973a5.121,5.121,0,0,0-7.208,0l-4.019,4A1.67,1.67,0,1,0,55.841,7.33l4.019-4a1.757,1.757,0,0,1,2.472,0l14.5,14.429-9.678,9.634a5.054,5.054,0,0,0,2.276,8.481,5.1,5.1,0,0,0,4.919-1.322l1.207-1.2a1.744,1.744,0,0,1,2.46,0,1.724,1.724,0,0,1,0,2.447l-6.034,6.007a5.047,5.047,0,0,0,0,7.161,5.107,5.107,0,0,0,7.195,0l8.448-8.408a1.749,1.749,0,0,1,2.459,0l2.436,2.426L76.783,58.642,40.535,22.565l2.01-2a1.671,1.671,0,1,0-2.368-2.358l-3.192,3.176,0,0L24.915,33.4l0,0.006-4.829,4.806a11.825,11.825,0,0,0,0,16.756L26.145,61,1.986,85.044a8.446,8.446,0,0,0,3.8,14.17,8.53,8.53,0,0,0,8.218-2.206L38.167,72.965,44.23,79a11.963,11.963,0,0,0,16.837,0l4.832-4.81,12.068-12.01h0l18.1-18.013h0l2.413-2.4a5.01,5.01,0,0,0,1.491-3.58h0A5.058,5.058,0,0,0,99.916,37.6ZM11.64,94.652a5.3,5.3,0,0,1-7.285,0,5.117,5.117,0,0,1,0-7.252L28.512,63.357,35.8,70.608ZM92.448,38.2a5.108,5.108,0,0,0-7.195,0L76.8,46.608a1.783,1.783,0,0,1-2.459,0,1.724,1.724,0,0,1,0-2.445l6.034-6.007a5.046,5.046,0,0,0,0-7.159,5.1,5.1,0,0,0-7.193,0l-1.207,1.2a1.743,1.743,0,0,1-2.458,0,1.725,1.725,0,0,1,0-2.448L79.2,20.116,96.113,36.953c0.027,0.029.038,0.065,0.063,0.094a1.275,1.275,0,0,1,.4.9,1.679,1.679,0,0,1,.046.232,1.722,1.722,0,0,1-.514,1.229l-1.224,1.219ZM33.34,29.726L69.588,65.8l-4.874,4.85L28.467,34.577ZM74.414,61l-2.458,2.446L35.707,27.37l2.459-2.449ZM58.7,76.641a8.593,8.593,0,0,1-12.1,0L22.45,52.608a8.5,8.5,0,0,1,0-12.043L26.1,36.932,62.347,73.01Zm-49.774,13a1.467,1.467,0,0,0-.284-0.15c-0.1-.033-0.2-0.067-0.318-0.1a1.631,1.631,0,0,0-.971.1,1.49,1.49,0,0,0-.536.365,1.613,1.613,0,0,0-.486,1.169,1.645,1.645,0,0,0,.118.648,1.7,1.7,0,0,0,.368.535A1.669,1.669,0,0,0,8,92.687,1.605,1.605,0,0,0,9.175,92.2a1.466,1.466,0,0,0,.369-0.535,1.672,1.672,0,0,0,.133-0.648,1.628,1.628,0,0,0-.5-1.169,1.119,1.119,0,0,0-.251-0.216h0Z"/>
</svg>
