<svg xmlns="http://www.w3.org/2000/svg" width="100" height="100" viewBox="0 0 100 100">
<path d="M1.667,76.661A1.667,1.667,0,1,1,0,78.328,1.667,1.667,0,0,1,1.667,76.661Zm95-28.026V11.661a5,5,0,0,0-5-5H90V4.994a5,5,0,0,0-5-5H81.667a5,5,0,0,0-5,5V6.662H60V4.994a5,5,0,0,0-5-5H45a5.005,5.005,0,0,0-5,5V6.662H23.333V4.994a5.005,5.005,0,0,0-5-5H15a5.005,5.005,0,0,0-5,5V6.662H8.333a5,5,0,0,0-5,5V48.635A4.993,4.993,0,0,0,0,53.327V71.661a1.667,1.667,0,0,0,3.333,0V53.327A1.668,1.668,0,0,1,5,51.661h5v25a5.008,5.008,0,0,0,5,5h3.333a5.008,5.008,0,0,0,5-5v-25H40V65a5.006,5.006,0,0,0,5,5H55a5.005,5.005,0,0,0,5-5V51.661H76.667v25a5.008,5.008,0,0,0,5,5H85a5.008,5.008,0,0,0,5-5v-25h5a1.668,1.668,0,0,1,1.667,1.666V94.994A1.669,1.669,0,0,1,95,96.661H5a1.669,1.669,0,0,1-1.667-1.667V85A1.667,1.667,0,1,0,0,85v10a5.005,5.005,0,0,0,5,5H95a5.005,5.005,0,0,0,5-5V53.327A4.992,4.992,0,0,0,96.667,48.635ZM80,4.994a1.668,1.668,0,0,1,1.667-1.666H85a1.668,1.668,0,0,1,1.667,1.666V6.662H80V4.994Zm-36.667,0A1.668,1.668,0,0,1,45,3.328H55a1.668,1.668,0,0,1,1.667,1.666V6.662H43.333V4.994Zm-30,0A1.668,1.668,0,0,1,15,3.328h3.333A1.668,1.668,0,0,1,20,4.994V6.662H13.333V4.994ZM86.667,48.328H64.8L69.24,43.06A11.791,11.791,0,0,0,84.55,31.482a1.667,1.667,0,0,0-2.5-1.389l-6.8,3.916a1.237,1.237,0,0,1-1.692-.456l-1.674-2.9a1.252,1.252,0,0,1,.453-1.691l7.034-4.031a1.665,1.665,0,0,0,.128-2.81A11.769,11.769,0,0,0,61.188,33.956L49.075,48.328H43.157l-11.1-17.754a8.331,8.331,0,0,0-14.125,8.838l5.573,8.917H13.333V16.661H86.667V48.328ZM80,63.328h6.667v3.333H80V63.328Zm-21.667-15h-4.9L64.258,35.486a1.407,1.407,0,0,0,.072-0.132,1.692,1.692,0,0,0,.269-1.245c-0.008-.044,0-0.087-0.009-0.132A8.466,8.466,0,0,1,74.964,23.612l-4.3,2.461a4.6,4.6,0,0,0-1.675,6.236l1.674,2.906A4.573,4.573,0,0,0,76.908,36.9l3.809-2.193a8.481,8.481,0,0,1-11.335,4.851c-0.038-.016-0.078-0.012-0.117-0.026a1.516,1.516,0,0,0-.231-0.049,1.366,1.366,0,0,0-1.2.222,1.647,1.647,0,0,0-.337.267c-0.018.019-.042,0.027-0.059,0.048l-7,8.307H58.333Zm-23.027,0L28.5,37.444a1.667,1.667,0,1,0-2.826,1.768l5.7,9.116H27.441L20.763,37.644a5,5,0,0,1,1.584-6.883,5.084,5.084,0,0,1,6.89,1.584l9.989,15.983h-3.92ZM20,66.661H13.333V63.328H20v3.333ZM18.333,78.328H15a1.669,1.669,0,0,1-1.667-1.667V69.994H20v6.667A1.669,1.669,0,0,1,18.333,78.328ZM20,59.994H13.333V51.661H20v8.333Zm36.667,5A1.668,1.668,0,0,1,55,66.661H45A1.668,1.668,0,0,1,43.333,65V51.661H56.667V65Zm30-13.334v8.333H80V51.661h6.667ZM85,78.328H81.667A1.669,1.669,0,0,1,80,76.661V69.994h6.667v6.667A1.669,1.669,0,0,1,85,78.328Zm5-30V14.994a1.664,1.664,0,0,0-1.667-1.666H11.667A1.664,1.664,0,0,0,10,14.994V48.328H6.667V11.661A1.668,1.668,0,0,1,8.333,9.995H91.667a1.668,1.668,0,0,1,1.667,1.666V48.328H90Z"/>
</svg>
