<svg xmlns="http://www.w3.org/2000/svg" width="77" height="100" viewBox="0 0 77 100">
<path d="M22.526,46.623a1.665,1.665,0,1,1-1.674,1.665A1.669,1.669,0,0,1,22.526,46.623ZM45.173,23.309a6.695,6.695,0,1,0-6.695,6.661,6.678,6.678,0,0,0,6.695-6.661h0Zm-10.042,0a3.347,3.347,0,1,1,3.347,3.33,3.339,3.339,0,0,1-3.347-3.33h0ZM75.3,59.945H68.6V58.28a1.674,1.674,0,0,0-3.347,0v1.665H60.3L49.806,30.38A13.251,13.251,0,0,0,43.5,10.968V4.991a5.021,5.021,0,0,0-10.042,0v5.977a13.25,13.25,0,0,0-6.336,19.364L23.309,41.073A1.664,1.664,0,0,0,24.33,43.2a1.725,1.725,0,0,0,.557.1,1.675,1.675,0,0,0,1.578-1.111l3.16-8.9A13.411,13.411,0,0,0,32.469,35.2L11.384,92.824l-1.277-4.512L19.349,62.26l0,0,2.4-6.752a1.659,1.659,0,0,0-.3-1.641,1.677,1.677,0,0,0-2.852.53l-1.969,5.551H11.7V58.28a1.674,1.674,0,0,0-3.347,0v1.665H1.657a1.665,1.665,0,1,0,0,3.33H8.351v1.666a1.674,1.674,0,0,0,3.347,0V63.275h3.74L6.773,87.7a1.654,1.654,0,0,0-.033,1.007L9.569,98.7a1.67,1.67,0,0,0,1.548,1.212,0.471,0.471,0,0,0,.064,0,1.676,1.676,0,0,0,1.572-1.1l13-35.541h4.662a5.008,5.008,0,0,0,4.713,3.33h6.695a5.008,5.008,0,0,0,4.713-3.33h4.638L64.2,98.9a1.674,1.674,0,0,0,1.572,1.095h0.067a1.67,1.67,0,0,0,1.546-1.219L70.195,88.7a1.665,1.665,0,0,0-.034-1L61.487,63.275h3.77v1.666a1.674,1.674,0,0,0,3.347,0V63.275H75.3A1.665,1.665,0,1,0,75.3,59.945ZM36.8,4.991a1.674,1.674,0,0,1,3.347,0V10.1a12.206,12.206,0,0,0-3.347,0V4.991ZM28.436,23.309A10.042,10.042,0,1,1,38.478,33.3a10.017,10.017,0,0,1-10.042-9.991h0Zm13.39,39.966H35.131a1.665,1.665,0,1,1,0-3.33h6.695A1.665,1.665,0,1,1,41.825,63.275Zm4.713-3.33a5.015,5.015,0,0,0-4.713-3.331H35.131a5.015,5.015,0,0,0-4.713,3.331H26.975L35.62,36.319a13.2,13.2,0,0,0,5.7,0l8.639,23.623h-3.42ZM65.56,92.869L53.9,60.979l-0.009-.026L44.473,35.2a13.368,13.368,0,0,0,2.823-1.9L66.828,88.315Z"/>
</svg>
