<svg xmlns="http://www.w3.org/2000/svg" width="125" height="124" viewBox="0 0 125 124">
<path d="M44.344,122.039L3.211,81.961A7.371,7.371,0,0,1,.574,76.512a7.594,7.594,0,0,1,2.109-5.8A7.2,7.2,0,0,1,8.133,68.25a8.4,8.4,0,0,1,5.625,2.109l34.1,33.4L110.086,4.266A7.946,7.946,0,0,1,115.008,1.1a7.239,7.239,0,0,1,5.8,1.055,7.724,7.724,0,0,1,3.339,4.922,7.736,7.736,0,0,1-1.054,5.977L55.945,120.633a4.106,4.106,0,0,1-.527.879,11.915,11.915,0,0,1-1.23.879l-0.352.351a7.678,7.678,0,0,1-2.461,1.055h-0.7a2.251,2.251,0,0,1-1.758,0H47.508a3.912,3.912,0,0,0-1.406-.7,2.8,2.8,0,0,0-1.055-.352c-0.236-.231-0.412-0.406-0.527-0.527s-0.176-.176-0.176-0.176h0Z"/>
</svg>
